REM DIRINDEX 1\5,1\2\6,1\2\7,1\3\8,1\3\9,1\4\10,1\4\11,1\4\12
REM DIRNAME folder01,folder02,folder03,folder04,folder05,folder06,folder07,folder08,folder09,folder10,folder11,folder12
TITLE ""
FILE "EJE_DB3000_5th_3B_01.mp3" MP3
  TRACK 01 AUDIO
    TITLE "0:"
    INDEX 01 00:00:00
  TRACK 02 AUDIO
    TITLE "10:cjc026_08397"
    INDEX 01 00:00:05
  TRACK 03 AUDIO
    TITLE "0:"
    INDEX 01 00:01:07
  TRACK 04 AUDIO
    TITLE "11:cjc026_08398"
    INDEX 01 00:01:36
  TRACK 05 AUDIO
    TITLE "0:"
    INDEX 01 00:02:34
  TRACK 06 AUDIO
    TITLE "12:cjc026_08399"
    INDEX 01 00:02:59
  TRACK 07 AUDIO
    TITLE "0:"
    INDEX 01 00:03:61
  TRACK 08 AUDIO
    TITLE "10:cjc026_08400"
    INDEX 01 00:04:13
  TRACK 09 AUDIO
    TITLE "0:"
    INDEX 01 00:05:10
  TRACK 10 AUDIO
    TITLE "11:cjc026_08401"
    INDEX 01 00:05:38
  TRACK 11 AUDIO
    TITLE "0:"
    INDEX 01 00:06:26
  TRACK 12 AUDIO
    TITLE "12:cjc026_08402"
    INDEX 01 00:06:51
  TRACK 13 AUDIO
    TITLE "0:"
    INDEX 01 00:07:49
  TRACK 14 AUDIO
    TITLE "10:cjc026_08403"
    INDEX 01 00:08:01
  TRACK 15 AUDIO
    TITLE "0:"
    INDEX 01 00:09:10
  TRACK 16 AUDIO
    TITLE "11:cjc026_08404"
    INDEX 01 00:09:38
  TRACK 17 AUDIO
    TITLE "0:"
    INDEX 01 00:10:33
  TRACK 18 AUDIO
    TITLE "12:cjc026_08405"
    INDEX 01 00:10:61
  TRACK 19 AUDIO
    TITLE "0:"
    INDEX 01 00:11:70
  TRACK 20 AUDIO
    TITLE "10:cjc026_08406"
    INDEX 01 00:12:22
  TRACK 21 AUDIO
    TITLE "0:"
    INDEX 01 00:13:08
  TRACK 22 AUDIO
    TITLE "11:cjc026_08407"
    INDEX 01 00:13:37
  TRACK 23 AUDIO
    TITLE "0:"
    INDEX 01 00:14:47
  TRACK 24 AUDIO
    TITLE "12:cjc026_08408"
    INDEX 01 00:14:72
  TRACK 25 AUDIO
    TITLE "0:"
    INDEX 01 00:15:60
  TRACK 26 AUDIO
    TITLE "10:cjc026_08409"
    INDEX 01 00:16:12
  TRACK 27 AUDIO
    TITLE "0:"
    INDEX 01 00:17:02
  TRACK 28 AUDIO
    TITLE "11:cjc026_08410"
    INDEX 01 00:17:25
  TRACK 29 AUDIO
    TITLE "0:"
    INDEX 01 00:18:23
  TRACK 30 AUDIO
    TITLE "12:cjc026_08411"
    INDEX 01 00:18:48
  TRACK 31 AUDIO
    TITLE "0:"
    INDEX 01 00:19:38
  TRACK 32 AUDIO
    TITLE "10:cjc026_08412"
    INDEX 01 00:19:62
  TRACK 33 AUDIO
    TITLE "0:"
    INDEX 01 00:21:02
  TRACK 34 AUDIO
    TITLE "11:cjc026_08413"
    INDEX 01 00:21:29
  TRACK 35 AUDIO
    TITLE "0:"
    INDEX 01 00:22:34
  TRACK 36 AUDIO
    TITLE "12:cjc026_08414"
    INDEX 01 00:22:60
  TRACK 37 AUDIO
    TITLE "0:"
    INDEX 01 00:23:73
  TRACK 38 AUDIO
    TITLE "10:cjc026_08415"
    INDEX 01 00:24:24
  TRACK 39 AUDIO
    TITLE "0:"
    INDEX 01 00:25:39
  TRACK 40 AUDIO
    TITLE "11:cjc026_08416"
    INDEX 01 00:25:64
  TRACK 41 AUDIO
    TITLE "0:"
    INDEX 01 00:26:64
  TRACK 42 AUDIO
    TITLE "12:cjc026_08417"
    INDEX 01 00:27:14
  TRACK 43 AUDIO
    TITLE "0:"
    INDEX 01 00:28:27
  TRACK 44 AUDIO
    TITLE "10:cjc026_08418"
    INDEX 01 00:28:53
  TRACK 45 AUDIO
    TITLE "0:"
    INDEX 01 00:29:56
  TRACK 46 AUDIO
    TITLE "11:cjc026_08419"
    INDEX 01 00:30:06
  TRACK 47 AUDIO
    TITLE "0:"
    INDEX 01 00:31:14
  TRACK 48 AUDIO
    TITLE "12:cjc026_08420"
    INDEX 01 00:31:39
  TRACK 49 AUDIO
    TITLE "0:"
    INDEX 01 00:32:41
  TRACK 50 AUDIO
    TITLE "10:cjc026_08421"
    INDEX 01 00:32:66
  TRACK 51 AUDIO
    TITLE "0:"
    INDEX 01 00:34:00
  TRACK 52 AUDIO
    TITLE "11:cjc026_08422"
    INDEX 01 00:34:28
  TRACK 53 AUDIO
    TITLE "0:"
    INDEX 01 00:35:29
  TRACK 54 AUDIO
    TITLE "12:cjc026_08423"
    INDEX 01 00:35:53
  TRACK 55 AUDIO
    TITLE "0:"
    INDEX 01 00:36:64
  TRACK 56 AUDIO
    TITLE "10:cjc026_08424"
    INDEX 01 00:37:14
  TRACK 57 AUDIO
    TITLE "0:"
    INDEX 01 00:38:04
  TRACK 58 AUDIO
    TITLE "11:cjc026_08425"
    INDEX 01 00:38:31
  TRACK 59 AUDIO
    TITLE "0:"
    INDEX 01 00:39:41
  TRACK 60 AUDIO
    TITLE "12:cjc026_08426"
    INDEX 01 00:39:66
  TRACK 61 AUDIO
    TITLE "0:"
    INDEX 01 00:40:58
  TRACK 62 AUDIO
    TITLE "10:cjc026_08427"
    INDEX 01 00:41:08
  TRACK 63 AUDIO
    TITLE "0:"
    INDEX 01 00:42:04
  TRACK 64 AUDIO
    TITLE "11:cjc026_08428"
    INDEX 01 00:42:29
  TRACK 65 AUDIO
    TITLE "0:"
    INDEX 01 00:43:46
  TRACK 66 AUDIO
    TITLE "12:cjc026_08429"
    INDEX 01 00:43:72
  TRACK 67 AUDIO
    TITLE "0:"
    INDEX 01 00:44:67
  TRACK 68 AUDIO
    TITLE "10:cjc026_08430"
    INDEX 01 00:45:20
  TRACK 69 AUDIO
    TITLE "0:"
    INDEX 01 00:46:15
  TRACK 70 AUDIO
    TITLE "11:cjc026_08431"
    INDEX 01 00:46:43
  TRACK 71 AUDIO
    TITLE "0:"
    INDEX 01 00:47:56
  TRACK 72 AUDIO
    TITLE "12:cjc026_08432"
    INDEX 01 00:48:04
  TRACK 73 AUDIO
    TITLE "0:"
    INDEX 01 00:49:02
